<svg width="113" height="30" viewBox="0 0 113 30" fill="none" xmlns="http://www.w3.org/2000/svg">
<path fill-rule="evenodd" clip-rule="evenodd" d="M45.4438 25.4766C41.9532 25.4766 39.1019 22.5065 39.1019 18.8186C39.1019 15.1307 41.9532 12.1111 45.4438 12.1111C48.2705 12.1111 50.4826 13.7943 51.3429 16.3683H49.1062C48.3931 14.9822 47.0904 14.1159 45.4438 14.1159C43.1088 14.1159 41.1915 16.2444 41.1915 18.8186C41.1915 21.3929 43.1088 23.4718 45.4438 23.4718C47.115 23.4718 48.4178 22.6053 49.1062 21.2196H51.3429C50.5072 23.7934 48.2705 25.4766 45.4438 25.4766Z" fill="#07467E"/>
<path fill-rule="evenodd" clip-rule="evenodd" d="M52.469 6.76465H54.534V20.4522C54.534 22.7042 55.9104 23.2736 57.483 23.1992V25.1795C54.5094 25.5258 52.469 23.7684 52.469 20.5263V6.76465Z" fill="#07467E"/>
<path fill-rule="evenodd" clip-rule="evenodd" d="M67.9964 18.8434C67.9964 16.2442 66.0786 14.1159 63.719 14.1159C61.3837 14.1159 59.4665 16.2442 59.4665 18.8434C59.4665 21.3929 61.3837 23.4718 63.719 23.4718C66.0786 23.4718 67.9964 21.3929 67.9964 18.8434ZM70.0854 18.8434C70.0854 22.5065 67.3326 25.5014 63.719 25.5014C60.1305 25.5014 57.3527 22.5065 57.3527 18.8434C57.3527 15.1307 60.1305 12.1111 63.719 12.1111C67.3326 12.1111 70.0854 15.1307 70.0854 18.8434Z" fill="#07467E"/>
<path fill-rule="evenodd" clip-rule="evenodd" d="M77.1744 14.0418C74.8152 14.0418 72.8979 16.1211 72.8979 18.7692C72.8979 21.4671 74.8152 23.546 77.1744 23.546C79.4854 23.546 81.4515 21.4176 81.4515 18.7692C81.4515 16.1457 79.51 14.0418 77.1744 14.0418ZM83.5164 18.7692C83.5164 22.5559 80.7637 25.4768 77.1744 25.4768C73.6597 25.4768 70.8083 22.6053 70.8083 18.7692C70.8083 14.9576 73.6351 12.1112 77.1256 12.1112C78.8954 12.1112 80.4683 12.9529 81.5006 14.2648V6.76489H83.5164V18.7692Z" fill="#07467E"/>
<path fill-rule="evenodd" clip-rule="evenodd" d="M86.7269 19.6599L94.5439 16.3434C93.7567 14.9572 92.356 14.0912 90.9302 14.0912C88.915 14.0912 86.6535 15.8732 86.6535 18.7939C86.6535 19.1155 86.6781 19.3876 86.7269 19.6599ZM97.0752 21.2194C96.092 23.9419 93.9782 25.4764 91.0531 25.4764C87.4153 25.4764 84.564 22.5558 84.564 18.8186C84.564 15.1305 87.4153 12.1111 90.9302 12.1111C93.683 12.1111 96.3622 14.0417 97.0998 17.3582L87.3907 21.4915C88.2018 22.7788 89.6032 23.4963 91.0531 23.4963C92.8475 23.4963 94.1009 22.7043 94.9123 21.2194H97.0752Z" fill="#07467E"/>
<path fill-rule="evenodd" clip-rule="evenodd" d="M108.427 18.8434C108.427 16.2442 106.51 14.1159 104.15 14.1159C101.815 14.1159 99.8975 16.2442 99.8975 18.8434C99.8975 21.3929 101.815 23.4718 104.15 23.4718C106.51 23.4718 108.427 21.3929 108.427 18.8434ZM110.516 18.8434C110.516 22.5065 107.763 25.5014 104.15 25.5014C100.561 25.5014 97.7834 22.5065 97.7834 18.8434C97.7834 15.1307 100.561 12.1111 104.15 12.1111C107.763 12.1111 110.516 15.1307 110.516 18.8434Z" fill="#07467E"/>
<path fill-rule="evenodd" clip-rule="evenodd" d="M4.5841 18.4267C4.65356 20.0806 5.5 21.5337 6.7599 22.4216C7.53688 22.9765 8.47366 23.3097 9.49122 23.35L10.9981 23.3513L11.8356 23.35L16.6024 23.3484V26.5374L9.5919 26.539C9.50468 26.539 9.41746 26.5358 9.32907 26.5345C9.2401 26.5313 9.15463 26.5282 9.06566 26.5209C9.00966 26.5195 8.95093 26.515 8.89298 26.5076C8.8401 26.5046 8.78956 26.4987 8.73942 26.4956C8.72771 26.4926 8.71737 26.4926 8.70703 26.4899C8.64185 26.4838 8.57707 26.4747 8.51503 26.4659C8.42488 26.4539 8.33454 26.4408 8.24478 26.4256C8.17668 26.4152 8.11015 26.402 8.04537 26.3901C7.96127 26.3722 7.87834 26.3559 7.79542 26.335C7.61981 26.2965 7.44537 26.2502 7.27405 26.1983C7.20459 26.1759 7.13688 26.1535 7.06742 26.1313C6.98742 26.106 6.90937 26.0777 6.82937 26.048C6.75268 26.0213 6.67444 25.9914 6.59756 25.9602C6.51951 25.9303 6.44537 25.8963 6.36712 25.8635C6.13981 25.7641 5.91951 25.6537 5.70234 25.5318C5.62995 25.4931 5.55912 25.4499 5.48654 25.4098C5.38176 25.3476 5.27873 25.2806 5.17493 25.212H5.17376C5.0719 25.145 4.96966 25.0723 4.87073 25.0008C4.8042 24.9518 4.73942 24.9041 4.67425 24.852C4.54449 24.7509 4.41883 24.6467 4.29493 24.5398C4.23288 24.4831 4.17356 24.4282 4.11327 24.3746C4.10839 24.3685 4.10429 24.3656 4.09981 24.3628C4.04498 24.309 3.98898 24.2571 3.93454 24.2023C3.87678 24.1441 3.82059 24.0875 3.76322 24.0282C3.73044 23.9952 3.70098 23.9612 3.66995 23.9284C3.65044 23.9076 3.63288 23.8852 3.6122 23.863C3.59912 23.8467 3.5841 23.8317 3.57239 23.8154C3.47659 23.707 3.38468 23.5981 3.29785 23.4867C3.28576 23.4702 3.27229 23.4571 3.26215 23.4451C3.22664 23.3991 3.19132 23.3513 3.15581 23.305C3.12907 23.268 3.09981 23.228 3.07307 23.1904C2.99912 23.0894 2.92712 22.9837 2.8559 22.8782C2.85454 22.8723 2.85278 22.8708 2.85161 22.8666C2.84732 22.8651 2.84732 22.8604 2.84556 22.859C2.79542 22.7831 2.748 22.7042 2.69785 22.624C2.60029 22.4603 2.50878 22.2937 2.42039 22.1228C2.39054 22.066 2.36439 22.0127 2.33883 21.9546C2.31073 21.9012 2.28576 21.8507 2.26195 21.7954C2.24166 21.7524 2.2239 21.7078 2.20322 21.6616C2.16927 21.5815 2.13512 21.4996 2.1041 21.4178C2.09103 21.3911 2.08068 21.3612 2.06859 21.3329C2.03015 21.2316 1.99659 21.1292 1.96068 21.0251C1.92107 20.9089 1.88381 20.7914 1.85024 20.6726C1.8161 20.5533 1.78371 20.4346 1.75698 20.3124C1.73493 20.2219 1.71425 20.1311 1.69785 20.0419C1.66976 19.9108 1.64595 19.7786 1.62839 19.6462C1.62839 19.6358 1.6241 19.6314 1.62273 19.6224C1.60927 19.5273 1.59893 19.4334 1.58742 19.3369C1.57688 19.2414 1.56927 19.1495 1.56185 19.0558C1.55932 19.0365 1.55932 19.0214 1.5562 19.0067C1.55015 18.9159 1.54722 18.8251 1.54293 18.7343C1.53981 18.6318 1.53864 18.529 1.53864 18.4267C1.53864 18.3268 1.53981 18.2227 1.54293 18.1215C1.54722 18.0308 1.55015 17.94 1.5562 17.8494C1.55932 17.8347 1.55932 17.8154 1.56185 17.8003C1.56927 17.7068 1.57688 17.6144 1.58742 17.5191C1.59893 17.4227 1.60927 17.3289 1.62273 17.2336C1.6241 17.2246 1.62839 17.2158 1.62839 17.2099C1.64595 17.0774 1.66976 16.9452 1.69785 16.8142C1.71425 16.7252 1.73493 16.6342 1.75698 16.5434C1.78371 16.4214 1.8161 16.3025 1.85024 16.1835C1.88381 16.0632 1.92107 15.9471 1.96068 15.831C1.99659 15.7271 2.03015 15.6243 2.06859 15.5231C2.07464 15.5098 2.08068 15.498 2.08634 15.4844C2.10566 15.431 2.12771 15.3787 2.14976 15.3268C2.16615 15.282 2.18566 15.2376 2.20322 15.1946C2.20751 15.1854 2.21064 15.1781 2.21493 15.1706C2.22527 15.1455 2.23698 15.1184 2.24732 15.0932C2.25337 15.0814 2.25942 15.0708 2.26195 15.0606C2.27405 15.0353 2.28576 15.0129 2.29785 14.9891C2.36693 14.839 2.44107 14.6916 2.51912 14.5443C2.53083 14.5219 2.54429 14.4983 2.55464 14.4759C2.64615 14.3138 2.74371 14.1547 2.84556 13.9969C2.84732 13.9896 2.85278 13.9837 2.8559 13.9778C2.86059 13.9731 2.86625 13.9674 2.86917 13.9597C2.98878 13.7782 3.1162 13.6 3.24907 13.4304C3.25337 13.4245 3.25766 13.4169 3.26215 13.411C3.26683 13.4065 3.27229 13.399 3.27717 13.3931C3.37161 13.274 3.46742 13.1595 3.56634 13.0465L3.57239 13.0406C3.5841 13.0229 3.59737 13.0078 3.6122 12.9929C3.63288 12.9707 3.65044 12.9485 3.66995 12.9275C3.70098 12.8948 3.73044 12.862 3.76322 12.8276C3.81922 12.7685 3.87542 12.7119 3.93454 12.654C3.98898 12.5988 4.04498 12.5467 4.09981 12.493C4.10429 12.4887 4.10839 12.4828 4.11327 12.4815C4.17356 12.4264 4.23288 12.3726 4.29493 12.3162C4.41883 12.2089 4.54449 12.105 4.67425 12.004C4.73942 11.9518 4.8042 11.9042 4.87073 11.8551C4.96966 11.7838 5.0719 11.7107 5.17376 11.6425H5.17493C5.27873 11.5739 5.38176 11.5087 5.48654 11.446C5.55912 11.4061 5.62995 11.3629 5.70234 11.3242C5.91951 11.2022 6.13981 11.092 6.36712 10.9924C6.44537 10.9597 6.51951 10.9254 6.59756 10.8959C6.67444 10.8646 6.75268 10.8348 6.82937 10.8065C6.90937 10.7782 6.98742 10.7501 7.06742 10.7232C7.13688 10.7026 7.20459 10.68 7.27405 10.6576C7.44537 10.6057 7.61981 10.5597 7.79542 10.5194C7.87834 10.5002 7.96127 10.4839 8.04537 10.466C8.11015 10.454 8.17668 10.4408 8.24478 10.4287C8.33454 10.4155 8.42488 10.4019 8.51503 10.39C8.57707 10.3813 8.64185 10.3721 8.70703 10.3664C8.71737 10.3634 8.72771 10.3634 8.73942 10.3603C8.78956 10.3573 8.8401 10.3513 8.89298 10.3485C8.95093 10.341 9.00693 10.3365 9.06566 10.3351C9.15463 10.3275 9.2401 10.323 9.32907 10.3218C9.41746 10.3186 9.50468 10.3173 9.5919 10.3173H16.6024V13.5047L9.49122 13.5063C8.47366 13.5462 7.53688 13.8796 6.7599 14.4344C5.5 15.3223 4.65356 16.7755 4.5841 18.4267Z" fill="#07467E"/>
<path fill-rule="evenodd" clip-rule="evenodd" d="M33.6344 17.7879C33.6344 17.7659 33.6344 17.7417 33.6326 17.716C33.6326 17.6659 33.6309 17.6119 33.6293 17.5637C33.6254 17.4955 33.6215 17.427 33.6145 17.3584C33.6106 17.2953 33.6084 17.2435 33.6034 17.1916C33.5959 17.1063 33.587 17.0195 33.5774 16.936L33.5645 16.8324C33.4285 15.7803 33.1031 14.7783 32.6119 13.869C31.8098 12.3779 30.5698 11.137 29.025 10.3369L29.0086 10.3257C28.9663 10.3053 28.9296 10.2848 28.8869 10.2648C28.8373 10.2387 28.7842 10.2149 28.7347 10.1905C28.6754 10.1646 28.6112 10.1332 28.5507 10.1053C28.4933 9.93668 28.4328 9.77007 28.3663 9.60326C28.2839 9.30913 28.1881 9.01992 28.0798 8.7366C27.5571 7.37717 26.7388 6.16589 25.7015 5.18429C25.6553 5.14166 25.6075 5.09902 25.5616 5.05442C22.5044 2.31514 17.9228 1.76127 14.235 3.99875C13.6151 4.37461 13.0539 4.81001 12.5536 5.29354C11.7479 6.06589 11.0986 6.96221 10.6149 7.93477H14.2108C14.3544 7.75873 14.5068 7.59015 14.6709 7.42708C15.8664 6.25097 17.5179 5.53992 19.3208 5.53992C20.2276 5.53992 21.0935 5.72323 21.8812 6.05646C24.2354 7.04729 25.9001 9.3665 25.9554 12.0816C25.9864 12.2484 26.0123 12.4166 26.0344 12.5852L26.768 12.8243C26.7809 12.828 26.7957 12.8316 26.8086 12.839C26.9411 12.8817 27.0681 12.9298 27.195 12.9817L27.2594 13.0113C27.3033 13.028 27.3513 13.0483 27.3991 13.0725C27.4342 13.0909 27.4652 13.1059 27.4984 13.1186L27.5831 13.165C27.9474 13.3542 28.2839 13.5819 28.5891 13.8413C29.6008 14.7022 30.2703 15.9174 30.4434 17.26L30.4508 17.3211C30.458 17.3714 30.4615 17.427 30.4689 17.4808L30.4746 17.5826C30.4783 17.6323 30.48 17.6749 30.4839 17.7193C30.4875 17.7547 30.4875 17.7936 30.4875 17.8305C30.4875 17.8547 30.4892 17.8808 30.4892 17.9048V18.0547C30.4875 18.1046 30.4875 18.1567 30.4839 18.2064V18.2341L30.4726 18.3956C30.4711 18.42 30.4689 18.4435 30.4654 18.4679L30.4543 18.5713C30.2116 20.7421 28.659 22.5721 26.5678 23.1572C26.553 23.159 26.5384 23.1629 26.5198 23.1647C26.5181 23.1686 26.5161 23.1686 26.5142 23.1686C26.5052 23.1704 26.4939 23.1704 26.4849 23.1722V23.1761L26.4867 23.1796V23.1816C26.0986 23.2963 25.6869 23.3555 25.2617 23.3555H24.2151H23.4894H21.482H19.1132V26.5376H23.4894H25.2599C25.9277 26.5376 26.5768 26.4504 27.195 26.2818C27.2024 26.2802 27.2057 26.2802 27.2135 26.2785C27.3569 26.2376 27.5001 26.1967 27.64 26.1466C30.4947 25.2595 32.6779 22.9055 33.3862 20.0216C33.4798 19.6458 33.5481 19.2605 33.5887 18.8679L33.592 18.8253V18.8141L33.5995 18.7418C33.6084 18.6345 33.6215 18.527 33.6254 18.4143V18.3993C33.6326 18.2494 33.6361 18.1105 33.6361 17.9677V17.8547C33.6361 17.8362 33.6344 17.8123 33.6344 17.7879Z" fill="#45A9FF"/>
</svg>
