<svg width="17" height="17" viewBox="0 0 17 17" fill="none" xmlns="http://www.w3.org/2000/svg">
<path fill-rule="evenodd" clip-rule="evenodd" d="M2.02734 0.0754395C0.922774 0.0754395 0.0273438 0.97087 0.0273438 2.07544V14.0754C0.0273438 15.18 0.922774 16.0754 2.02734 16.0754H14.0273C15.1319 16.0754 16.0273 15.18 16.0273 14.0754V2.07544C16.0273 0.97087 15.1319 0.0754395 14.0273 0.0754395H2.02734ZM5.59877 2.36115C5.04649 2.36115 4.59877 2.80887 4.59877 3.36116V12.7897C4.59877 13.342 5.04649 13.7897 5.59877 13.7897H5.88449C6.43677 13.7897 6.88449 13.342 6.88449 12.7897V3.36115C6.88449 2.80887 6.43677 2.36115 5.88449 2.36115H5.59877Z" fill="#BCC9DA"/>
</svg>
